HIERARCHY
ROOT Hips
{
    OFFSET 0.000000 0.000000 0.000000
    CHANNELS 6 Xposition Yposition Zposition Zrotation Xrotation Yrotation
    JOINT Spine
    {
        OFFSET -0.000000 7.236184 0.000000
        CHANNELS 3 Zrotation Xrotation Yrotation
        JOINT Spine1
        {
            OFFSET -0.000000 20.420147 0.000000
            CHANNELS 3 Zrotation Xrotation Yrotation
            JOINT Neck
            {
                OFFSET -0.000000 20.336288 1.848754
                CHANNELS 3 Zrotation Xrotation Yrotation
                JOINT Head
                {
                    OFFSET -0.000000 12.354461 -1.764923
                    CHANNELS 3 Zrotation Xrotation Yrotation
                    End Site
                    {
                        OFFSET -0.000000 22.061537 0.000000
                    }
                }
            }
            JOINT LeftShoulder
            {
                OFFSET 3.573296 18.396038 -0.314103
                CHANNELS 3 Zrotation Xrotation Yrotation
                JOINT LeftArm
                {
                    OFFSET 10.880760 0.000000 0.000000
                    CHANNELS 3 Zrotation Xrotation Yrotation
                    JOINT LeftForeArm
                    {
                        OFFSET 27.185530 0.000000 0.000000
                        CHANNELS 3 Zrotation Xrotation Yrotation
                        JOINT LeftHand
                        {
                            OFFSET 27.825975 0.000000 0.000000
                            CHANNELS 3 Zrotation Xrotation Yrotation
                            End Site
                            {
                                OFFSET 13.236923 0.000000 0.000000
                            }
                        }
                    }
                }
            }
            JOINT RightShoulder
            {
                OFFSET -3.474926 18.396038 -0.314103
                CHANNELS 3 Zrotation Xrotation Yrotation
                JOINT RightArm
                {
                    OFFSET -10.880760 0.000000 0.000000
                    CHANNELS 3 Zrotation Xrotation Yrotation
                    JOINT RightForeArm
                    {
                        OFFSET -27.185530 0.000000 0.000000
                        CHANNELS 3 Zrotation Xrotation Yrotation
                        JOINT RightHand
                        {
                            OFFSET -27.825975 0.000000 0.000000
                            CHANNELS 3 Zrotation Xrotation Yrotation
                            End Site
                            {
                                OFFSET -13.236923 0.000000 0.000000
                            }
                        }
                    }
                }
            }
        }
    }
    JOINT LeftUpLeg
    {
        OFFSET 8.824615 0.000000 0.000000
        CHANNELS 3 Zrotation Xrotation Yrotation
        JOINT LeftLeg
        {
            OFFSET -0.000000 -35.111282 0.000000
            CHANNELS 3 Zrotation Xrotation Yrotation
            JOINT LeftFoot
            {
                OFFSET -0.000000 -42.324711 0.000000
                CHANNELS 3 Zrotation Xrotation Yrotation
                JOINT LeftToeBase
                {
                    OFFSET -0.000000 -5.735999 13.236923
                    CHANNELS 3 Zrotation Xrotation Yrotation
                    End Site
                    {
                        OFFSET -0.000000 0.000000 3.529846
                    }
                }
            }
        }
    }
    JOINT RightUpLeg
    {
        OFFSET -8.824615 0.000000 0.000000
        CHANNELS 3 Zrotation Xrotation Yrotation
        JOINT RightLeg
        {
            OFFSET -0.000000 -35.111282 0.000000
            CHANNELS 3 Zrotation Xrotation Yrotation
            JOINT RightFoot
            {
                OFFSET -0.000000 -42.324711 0.000000
                CHANNELS 3 Zrotation Xrotation Yrotation
                JOINT RightToeBase
                {
                    OFFSET -0.000000 -5.735999 13.236923
                    CHANNELS 3 Zrotation Xrotation Yrotation
                    End Site
                    {
                        OFFSET -0.000000 0.000000 3.529846
                    }
                }
            }
        }
    }
}
MOTION
Frames:    10
Frame Time:    0.008333
27.524891    81.882896    108.520569    3.941887    -10.421595    -164.990768    0.332626    -14.976881    4.424057    11.898428    16.406494    2.659006    -36.354649    12.909757    -9.606730    29.606964    -3.229823    -3.705447    -21.335510    13.965641    -8.114637    -48.596275    -5.862224    -12.651037    -23.302013    14.473184    -21.622320    19.102152    10.885386    4.967443    -16.942398    28.615726    -22.115698    69.532387    39.001511    48.285748    -6.692670    -0.212759    4.795579    -19.502785    -0.245366    1.825503    11.199285    -34.296638    2.375445    -8.396014    49.095615    23.283884    -8.589792    -2.178026    -21.598736    -0.830910    -3.528474    0.927090    -0.200670    -26.961817    -2.364221    2.635844    33.872704    -65.033195    15.626207    -4.826754    49.900566    -0.408574    -2.306042    0.443335    
27.392479    81.915047    108.520828    3.900887    -10.384968    -164.627441    -0.398666    -14.399929    3.773438    9.489234    15.234118    2.551947    -29.921278    12.684204    -8.814337    26.324471    -3.787752    -3.491322    -17.899477    14.311794    -6.710647    -52.521221    -1.106037    -15.630591    -17.620491    11.172478    -19.665924    18.684576    8.746189    3.739767    -12.114787    26.169407    -18.152771    64.278465    37.846855    45.726158    -5.765807    -1.671624    7.037301    -19.042181    -1.451255    0.801308    11.615070    -34.297554    2.383846    -7.764873    48.644249    22.405153    -8.513337    -2.143587    -21.470594    -0.846479    -3.639797    0.944662    -0.580070    -23.979437    -3.346304    4.152596    30.145803    -45.427818    11.633300    -10.139796    30.802752    -0.399199    -2.283543    0.433148    
27.258080    81.945251    108.520142    3.864072    -10.350462    -164.278091    -0.965074    -13.912632    3.227332    7.314239    14.252535    2.429432    -23.999891    12.637668    -8.110318    23.246857    -4.320781    -3.407492    -14.754375    14.728436    -5.476275    -55.208851    3.848153    -18.005194    -12.950378    8.096624    -17.992996    18.306314    6.518803    2.907103    -7.864349    24.371216    -15.121467    59.549278    37.747654    43.539337    -4.980079    -3.073668    9.298925    -18.628271    -2.641120    -0.169680    12.024973    -34.291248    2.386839    -7.136957    48.158558    21.518448    -8.433683    -2.096132    -21.350351    -0.862809    -3.733559    0.963060    -0.864720    -21.529631    -4.143637    4.904328    27.147928    -31.527521    8.006832    -12.404809    17.111158    -0.388847    -2.263079    0.421904    
27.120792    81.972992    108.518341    3.833888    -10.318263    -163.943390    -1.435136    -13.524256    2.774551    5.507384    13.471069    2.293835    -18.816656    12.690678    -7.530381    20.521885    -4.778013    -3.416759    -12.023892    15.158320    -4.414741    -56.876930    8.624140    -19.948147    -9.287792    5.333567    -16.596485    18.047356    4.365358    2.430154    -4.328265    23.093090    -12.845780    55.515892    38.272991    41.799866    -4.380005    -4.320502    11.414788    -18.258226    -3.722632    -1.004281    12.432446    -34.275867    2.385056    -6.506514    47.633522    20.610924    -8.352870    -2.035220    -21.238380    -0.880236    -3.809225    0.982655    -1.082747    -19.544472    -4.777568    5.238841    24.609568    -22.533857    5.524869    -12.996822    8.267787    -0.377398    -2.242558    0.409469    
26.980824    81.997643    108.515404    3.813245    -10.288903    -163.625595    -1.839112    -13.227467    2.406539    4.093782    12.869690    2.157911    -14.467083    12.786593    -7.079048    18.235538    -5.139487    -3.479816    -9.749638    15.561341    -3.522270    -57.777561    12.948518    -21.579775    -6.507243    2.939579    -15.469324    17.921623    2.406062    2.223585    -1.504160    22.198990    -11.158325    52.210350    39.077885    40.484135    -3.959282    -5.366935    13.281714    -17.928778    -4.645254    -1.668980    12.839010    -34.250572    2.379509    -5.874925    47.068562    19.679436    -8.274117    -1.962013    -21.134665    -0.897920    -3.865868    1.002506    -1.251463    -17.953775    -5.266830    5.395344    22.481047    -16.730202    3.970440    -12.932536    2.595284    -0.364450    -2.219114    0.395408    
26.835785    82.019119    108.511391    3.804180    -10.262237    -163.320755    -2.193393    -13.002847    2.107415    3.012205    12.405833    2.029943    -10.861554    12.892429    -6.735229    16.367603    -5.412617    -3.566989    -7.874959    15.921917    -2.770711    -58.156628    16.749252    -22.998365    -4.395562    0.890129    -14.571622    17.906429    0.673573    2.193488    0.735479    21.562387    -9.890675    49.518787    39.959591    39.502918    -3.680393    -6.226952    14.894913    -17.632765    -5.411928    -2.178828    13.252787    -34.214130    2.370066    -5.234893    46.453274    18.708488    -8.199271    -1.877554    -21.036957    -0.915034    -3.902791    1.021687    -1.385427    -16.662888    -5.637967    5.477469    20.697813    -12.826485    2.992907    -12.663606    -1.214059    -0.349831    -2.189290    0.379531    
26.686665    82.036903    108.506348    3.808297    -10.238615    -163.032715    -2.496269    -12.838309    1.869987    2.216215    12.051910    1.916905    -7.962744    12.989974    -6.482886    14.912218    -5.606927    -3.657087    -6.373485    16.227270    -2.151600    -58.198738    19.938263    -24.223419    -2.818641    -0.805123    -13.883071    17.970478    -0.790121    2.265584    2.468181    21.109188    -8.947290    47.380451    40.791309    38.792015    -3.510679    -6.908449    16.242558    -17.374144    -6.023407    -2.549342    13.670065    -34.165424    2.355455    -4.596523    45.791817    17.709991    -8.131445    -1.785000    -20.945795    -0.929979    -3.919189    1.038407    -1.491796    -15.624242    -5.905443    5.523978    19.234325    -10.155248    2.377706    -12.368991    -3.841650    -0.334549    -2.151718    0.362932    
26.531940    82.051018    108.500198    3.826123    -10.217436    -162.760620    -2.751349    -12.719613    1.682207    1.640488    11.776780    1.819711    -5.646716    13.072453    -6.300070    13.807526    -5.738980    -3.739334    -5.176985    16.479399    -1.642359    -58.050594    22.560188    -25.279949    -1.631646    -2.190227    -13.363504    18.083630    -2.001880    2.385460    3.808104    20.779318    -8.238521    45.682667    41.524628    38.279625    -3.416390    -7.443445    17.360897    -17.153032    -6.504800    -2.810185    14.093164    -34.101833    2.333381    -3.961210    45.078915    16.683352    -8.070635    -1.686172    -20.859945    -0.941612    -3.916736    1.051390    -1.577588    -14.775846    -6.090298    5.551887    18.025644    -8.264169    1.980127    -12.107436    -5.738997    -0.320026    -2.107748    0.347155    
26.371134    82.061417    108.492676    3.857240    -10.197902    -162.506516    -2.961039    -12.637040    1.535162    1.236847    11.559545    1.737914    -3.816047    13.138625    -6.169962    12.998162    -5.823565    -3.808044    -4.233376    16.682499    -1.227174    -57.813225    24.667646    -26.175772    -0.735765    -3.301811    -12.980605    18.222689    -2.981978    2.518813    4.837978    20.535067    -7.705140    44.343704    42.139999    37.913471    -3.372672    -7.859051    18.280231    -16.970539    -6.879006    -2.984913    14.520053    -34.019947    2.301089    -3.336170    44.314606    15.638395    -8.014994    -1.583237    -20.779232    -0.948487    -3.898563    1.059030    -1.647318    -14.075217    -6.209758    5.568291    17.023043    -6.895948    1.719974    -11.892652    -7.154909    -0.307783    -2.058977    0.333851    
26.201748    82.068253    108.483315    3.901226    -10.178883    -162.270020    -3.131637    -12.582571    1.419736    0.963042    11.382414    1.669106    -2.360906    13.190086    -6.077576    12.420304    -5.873371    -3.862278    -3.485045    16.846035    -0.886844    -57.548931    26.353846    -26.930609    -0.047758    -4.191513    -12.700987    18.373724    -3.769569    2.647623    5.635767    20.348570    -7.298008    43.280441    42.643932    37.650032    -3.360730    -8.185648    19.040873    -16.823793    -7.173275    -3.094545    14.953944    -33.914925    2.254988    -2.722147    43.490410    14.573851    -7.961865    -1.477547    -20.702763    -0.949885    -3.868515    1.060528    -1.704425    -13.482299    -6.280943    5.575104    16.175314    -5.878946    1.549511    -11.718795    -8.248626    -0.298655    -2.008815    0.323927    
